<svg xmlns="http://www.w3.org/2000/svg" width="187" height="69"><rect x="6.00" y="6.00" width="16.34" height="16.34" rx="2.94" fill="#e6e6e6"/><rect x="26.33" y="6.00" width="16.34" height="16.34" rx="2.94" fill="#a9aeb6"/><rect x="46.66" y="6.00" width="16.34" height="16.34" rx="2.94" fill="#f2a541"/><rect x="6.00" y="26.33" width="16.34" height="16.34" rx="2.94" fill="#a9aeb6"/><rect x="26.33" y="26.33" width="16.34" height="16.34" rx="2.94" fill="#e6e6e6"/><rect x="46.66" y="26.33" width="16.34" height="16.34" rx="2.94" fill="#6b717a"/><rect x="6.00" y="46.66" width="16.34" height="16.34" rx="2.94" fill="#6b717a"/><rect x="26.33" y="46.66" width="16.34" height="16.34" rx="2.94" fill="#a9aeb6"/><rect x="46.66" y="46.66" width="16.34" height="16.34" rx="2.94" fill="#e6e6e6"/><rect x="72.33" y="25.27" width="2.08" height="2.08" rx="0.41" fill="#e0e0e0"/><rect x="75.06" y="25.27" width="2.08" height="2.08" rx="0.41" fill="#e0e0e0"/><rect x="77.79" y="25.27" width="2.08" height="2.08" rx="0.41" fill="#e0e0e0"/><rect x="80.52" y="25.27" width="2.08" height="2.08" rx="0.41" fill="#e0e0e0"/><rect x="83.25" y="25.27" width="2.08" height="2.08" rx="0.41" fill="#e0e0e0"/><rect x="77.79" y="28.00" width="2.08" height="2.08" rx="0.41" fill="#e0e0e0"/><rect x="77.79" y="30.73" width="2.08" height="2.08" rx="0.41" fill="#e0e0e0"/><rect x="77.79" y="33.46" width="2.08" height="2.08" rx="0.41" fill="#e0e0e0"/><rect x="77.79" y="36.19" width="2.08" height="2.08" rx="0.41" fill="#e0e0e0"/><rect x="77.79" y="38.93" width="2.08" height="2.08" rx="0.41" fill="#e0e0e0"/><rect x="77.79" y="41.66" width="2.08" height="2.08" rx="0.41" fill="#e0e0e0"/><rect x="88.72" y="25.27" width="2.08" height="2.08" rx="0.41" fill="#e0e0e0"/><rect x="91.45" y="25.27" width="2.08" height="2.08" rx="0.41" fill="#e0e0e0"/><rect x="94.18" y="25.27" width="2.08" height="2.08" rx="0.41" fill="#e0e0e0"/><rect x="96.91" y="25.27" width="2.08" height="2.08" rx="0.41" fill="#e0e0e0"/><rect x="99.64" y="25.27" width="2.08" height="2.08" rx="0.41" fill="#e0e0e0"/><rect x="88.72" y="28.00" width="2.08" height="2.08" rx="0.41" fill="#e0e0e0"/><rect x="88.72" y="30.73" width="2.08" height="2.08" rx="0.41" fill="#e0e0e0"/><rect x="88.72" y="33.46" width="2.08" height="2.08" rx="0.41" fill="#e0e0e0"/><rect x="91.45" y="33.46" width="2.08" height="2.08" rx="0.41" fill="#e0e0e0"/><rect x="94.18" y="33.46" width="2.08" height="2.08" rx="0.41" fill="#e0e0e0"/><rect x="96.91" y="33.46" width="2.08" height="2.08" rx="0.41" fill="#e0e0e0"/><rect x="88.72" y="36.19" width="2.08" height="2.08" rx="0.41" fill="#e0e0e0"/><rect x="88.72" y="38.93" width="2.08" height="2.08" rx="0.41" fill="#e0e0e0"/><rect x="88.72" y="41.66" width="2.08" height="2.08" rx="0.41" fill="#e0e0e0"/><rect x="91.45" y="41.66" width="2.08" height="2.08" rx="0.41" fill="#e0e0e0"/><rect x="94.18" y="41.66" width="2.08" height="2.08" rx="0.41" fill="#e0e0e0"/><rect x="96.91" y="41.66" width="2.08" height="2.08" rx="0.41" fill="#e0e0e0"/><rect x="99.64" y="41.66" width="2.08" height="2.08" rx="0.41" fill="#e0e0e0"/><rect x="107.84" y="25.27" width="2.08" height="2.08" rx="0.41" fill="#e0e0e0"/><rect x="110.57" y="25.27" width="2.08" height="2.08" rx="0.41" fill="#e0e0e0"/><rect x="113.30" y="25.27" width="2.08" height="2.08" rx="0.41" fill="#e0e0e0"/><rect x="116.04" y="25.27" width="2.08" height="2.08" rx="0.41" fill="#e0e0e0"/><rect x="105.11" y="28.00" width="2.08" height="2.08" rx="0.41" fill="#e0e0e0"/><rect x="105.11" y="30.73" width="2.08" height="2.08" rx="0.41" fill="#e0e0e0"/><rect x="107.84" y="33.46" width="2.08" height="2.08" rx="0.41" fill="#e0e0e0"/><rect x="110.57" y="33.46" width="2.08" height="2.08" rx="0.41" fill="#e0e0e0"/><rect x="113.30" y="33.46" width="2.08" height="2.08" rx="0.41" fill="#e0e0e0"/><rect x="116.04" y="36.19" width="2.08" height="2.08" rx="0.41" fill="#e0e0e0"/><rect x="116.04" y="38.93" width="2.08" height="2.08" rx="0.41" fill="#e0e0e0"/><rect x="105.11" y="41.66" width="2.08" height="2.08" rx="0.41" fill="#e0e0e0"/><rect x="107.84" y="41.66" width="2.08" height="2.08" rx="0.41" fill="#e0e0e0"/><rect x="110.57" y="41.66" width="2.08" height="2.08" rx="0.41" fill="#e0e0e0"/><rect x="113.30" y="41.66" width="2.08" height="2.08" rx="0.41" fill="#e0e0e0"/><rect x="124.23" y="25.27" width="2.08" height="2.08" rx="0.41" fill="#e0e0e0"/><rect x="126.96" y="25.27" width="2.08" height="2.08" rx="0.41" fill="#e0e0e0"/><rect x="129.69" y="25.27" width="2.08" height="2.08" rx="0.41" fill="#e0e0e0"/><rect x="132.43" y="25.27" width="2.08" height="2.08" rx="0.41" fill="#e0e0e0"/><rect x="121.50" y="28.00" width="2.08" height="2.08" rx="0.41" fill="#e0e0e0"/><rect x="121.50" y="30.73" width="2.08" height="2.08" rx="0.41" fill="#e0e0e0"/><rect x="124.23" y="33.46" width="2.08" height="2.08" rx="0.41" fill="#e0e0e0"/><rect x="126.96" y="33.46" width="2.08" height="2.08" rx="0.41" fill="#e0e0e0"/><rect x="129.69" y="33.46" width="2.08" height="2.08" rx="0.41" fill="#e0e0e0"/><rect x="132.43" y="36.19" width="2.08" height="2.08" rx="0.41" fill="#e0e0e0"/><rect x="132.43" y="38.93" width="2.08" height="2.08" rx="0.41" fill="#e0e0e0"/><rect x="121.50" y="41.66" width="2.08" height="2.08" rx="0.41" fill="#e0e0e0"/><rect x="124.23" y="41.66" width="2.08" height="2.08" rx="0.41" fill="#e0e0e0"/><rect x="126.96" y="41.66" width="2.08" height="2.08" rx="0.41" fill="#e0e0e0"/><rect x="129.69" y="41.66" width="2.08" height="2.08" rx="0.41" fill="#e0e0e0"/><rect x="137.89" y="25.27" width="2.08" height="2.08" rx="0.41" fill="#e0e0e0"/><rect x="140.62" y="25.27" width="2.08" height="2.08" rx="0.41" fill="#e0e0e0"/><rect x="143.35" y="25.27" width="2.08" height="2.08" rx="0.41" fill="#e0e0e0"/><rect x="146.08" y="25.27" width="2.08" height="2.08" rx="0.41" fill="#e0e0e0"/><rect x="148.82" y="25.27" width="2.08" height="2.08" rx="0.41" fill="#e0e0e0"/><rect x="137.89" y="28.00" width="2.08" height="2.08" rx="0.41" fill="#e0e0e0"/><rect x="137.89" y="30.73" width="2.08" height="2.08" rx="0.41" fill="#e0e0e0"/><rect x="137.89" y="33.46" width="2.08" height="2.08" rx="0.41" fill="#e0e0e0"/><rect x="140.62" y="33.46" width="2.08" height="2.08" rx="0.41" fill="#e0e0e0"/><rect x="143.35" y="33.46" width="2.08" height="2.08" rx="0.41" fill="#e0e0e0"/><rect x="146.08" y="33.46" width="2.08" height="2.08" rx="0.41" fill="#e0e0e0"/><rect x="137.89" y="36.19" width="2.08" height="2.08" rx="0.41" fill="#e0e0e0"/><rect x="137.89" y="38.93" width="2.08" height="2.08" rx="0.41" fill="#e0e0e0"/><rect x="137.89" y="41.66" width="2.08" height="2.08" rx="0.41" fill="#e0e0e0"/><rect x="140.62" y="41.66" width="2.08" height="2.08" rx="0.41" fill="#e0e0e0"/><rect x="143.35" y="41.66" width="2.08" height="2.08" rx="0.41" fill="#e0e0e0"/><rect x="146.08" y="41.66" width="2.08" height="2.08" rx="0.41" fill="#e0e0e0"/><rect x="148.82" y="41.66" width="2.08" height="2.08" rx="0.41" fill="#e0e0e0"/><rect x="154.28" y="25.27" width="2.08" height="2.08" rx="0.41" fill="#e0e0e0"/><rect x="157.01" y="25.27" width="2.08" height="2.08" rx="0.41" fill="#e0e0e0"/><rect x="159.74" y="25.27" width="2.08" height="2.08" rx="0.41" fill="#e0e0e0"/><rect x="162.47" y="25.27" width="2.08" height="2.08" rx="0.41" fill="#e0e0e0"/><rect x="154.28" y="28.00" width="2.08" height="2.08" rx="0.41" fill="#e0e0e0"/><rect x="165.21" y="28.00" width="2.08" height="2.08" rx="0.41" fill="#e0e0e0"/><rect x="154.28" y="30.73" width="2.08" height="2.08" rx="0.41" fill="#e0e0e0"/><rect x="165.21" y="30.73" width="2.08" height="2.08" rx="0.41" fill="#e0e0e0"/><rect x="154.28" y="33.46" width="2.08" height="2.08" rx="0.41" fill="#e0e0e0"/><rect x="157.01" y="33.46" width="2.08" height="2.08" rx="0.41" fill="#e0e0e0"/><rect x="159.74" y="33.46" width="2.08" height="2.08" rx="0.41" fill="#e0e0e0"/><rect x="162.47" y="33.46" width="2.08" height="2.08" rx="0.41" fill="#e0e0e0"/><rect x="154.28" y="36.19" width="2.08" height="2.08" rx="0.41" fill="#e0e0e0"/><rect x="159.74" y="36.19" width="2.08" height="2.08" rx="0.41" fill="#e0e0e0"/><rect x="154.28" y="38.93" width="2.08" height="2.08" rx="0.41" fill="#e0e0e0"/><rect x="162.47" y="38.93" width="2.08" height="2.08" rx="0.41" fill="#e0e0e0"/><rect x="154.28" y="41.66" width="2.08" height="2.08" rx="0.41" fill="#e0e0e0"/><rect x="165.21" y="41.66" width="2.08" height="2.08" rx="0.41" fill="#e0e0e0"/><rect x="173.40" y="25.27" width="2.08" height="2.08" rx="0.41" fill="#e0e0e0"/><rect x="176.13" y="25.27" width="2.08" height="2.08" rx="0.41" fill="#e0e0e0"/><rect x="178.86" y="25.27" width="2.08" height="2.08" rx="0.41" fill="#e0e0e0"/><rect x="170.67" y="28.00" width="2.08" height="2.08" rx="0.41" fill="#e0e0e0"/><rect x="181.60" y="28.00" width="2.08" height="2.08" rx="0.41" fill="#e0e0e0"/><rect x="170.67" y="30.73" width="2.08" height="2.08" rx="0.41" fill="#e0e0e0"/><rect x="181.60" y="30.73" width="2.08" height="2.08" rx="0.41" fill="#e0e0e0"/><rect x="170.67" y="33.46" width="2.08" height="2.08" rx="0.41" fill="#e0e0e0"/><rect x="173.40" y="33.46" width="2.08" height="2.08" rx="0.41" fill="#e0e0e0"/><rect x="176.13" y="33.46" width="2.08" height="2.08" rx="0.41" fill="#e0e0e0"/><rect x="178.86" y="33.46" width="2.08" height="2.08" rx="0.41" fill="#e0e0e0"/><rect x="181.60" y="33.46" width="2.08" height="2.08" rx="0.41" fill="#e0e0e0"/><rect x="170.67" y="36.19" width="2.08" height="2.08" rx="0.41" fill="#e0e0e0"/><rect x="181.60" y="36.19" width="2.08" height="2.08" rx="0.41" fill="#e0e0e0"/><rect x="170.67" y="38.93" width="2.08" height="2.08" rx="0.41" fill="#e0e0e0"/><rect x="181.60" y="38.93" width="2.08" height="2.08" rx="0.41" fill="#e0e0e0"/><rect x="170.67" y="41.66" width="2.08" height="2.08" rx="0.41" fill="#e0e0e0"/><rect x="181.60" y="41.66" width="2.08" height="2.08" rx="0.41" fill="#e0e0e0"/></svg>
